<mxfile host="app.diagrams.net" agent="Mozilla/5.0 (Windows NT 10.0; Win64; x64) AppleWebKit/537.36 (KHTML, like Gecko) Chrome/129.0.0.0 Safari/537.36" version="24.8.0">
  <diagram name="Página-1" id="ZA-Aunzl22P8KFDoaN0C">
    <mxGraphModel dx="989" dy="538" grid="1" gridSize="10" guides="1" tooltips="1" connect="1" arrows="1" fold="1" page="1" pageScale="1" pageWidth="827" pageHeight="1169" math="0" shadow="0">
      <root>
        <mxCell id="0" />
        <mxCell id="1" parent="0" />
        <mxCell id="FufnaFPNU5PWBQHgHQ1B-16" value="" style="edgeStyle=orthogonalEdgeStyle;rounded=0;orthogonalLoop=1;jettySize=auto;html=1;" parent="1" source="FufnaFPNU5PWBQHgHQ1B-1" target="FufnaFPNU5PWBQHgHQ1B-3" edge="1">
          <mxGeometry relative="1" as="geometry" />
        </mxCell>
        <mxCell id="FufnaFPNU5PWBQHgHQ1B-1" value="Inicio" style="ellipse;whiteSpace=wrap;html=1;fontStyle=1" parent="1" vertex="1">
          <mxGeometry x="120" y="200" width="120" height="40" as="geometry" />
        </mxCell>
        <mxCell id="FufnaFPNU5PWBQHgHQ1B-2" value="FIM" style="ellipse;whiteSpace=wrap;html=1;" parent="1" vertex="1">
          <mxGeometry x="120" y="1005" width="120" height="60" as="geometry" />
        </mxCell>
        <mxCell id="FufnaFPNU5PWBQHgHQ1B-15" value="" style="edgeStyle=orthogonalEdgeStyle;rounded=0;orthogonalLoop=1;jettySize=auto;html=1;" parent="1" source="FufnaFPNU5PWBQHgHQ1B-3" target="FufnaFPNU5PWBQHgHQ1B-12" edge="1">
          <mxGeometry relative="1" as="geometry" />
        </mxCell>
        <mxCell id="FufnaFPNU5PWBQHgHQ1B-3" value="Leitura Variavel Letra" style="html=1;strokeWidth=2;shape=manualInput;whiteSpace=wrap;rounded=1;size=27;arcSize=11;" parent="1" vertex="1">
          <mxGeometry x="130" y="280" width="100" height="70" as="geometry" />
        </mxCell>
        <mxCell id="FufnaFPNU5PWBQHgHQ1B-4" value="" style="rounded=0;whiteSpace=wrap;html=1;" parent="1" vertex="1">
          <mxGeometry x="690" y="475" width="120" height="60" as="geometry" />
        </mxCell>
        <mxCell id="FufnaFPNU5PWBQHgHQ1B-5" value="" style="shape=display;whiteSpace=wrap;html=1;" parent="1" vertex="1">
          <mxGeometry x="729" y="705" width="96" height="50" as="geometry" />
        </mxCell>
        <mxCell id="FufnaFPNU5PWBQHgHQ1B-25" value="" style="edgeStyle=orthogonalEdgeStyle;rounded=0;orthogonalLoop=1;jettySize=auto;html=1;" parent="1" source="FufnaFPNU5PWBQHgHQ1B-6" target="FufnaFPNU5PWBQHgHQ1B-23" edge="1">
          <mxGeometry relative="1" as="geometry" />
        </mxCell>
        <mxCell id="FufnaFPNU5PWBQHgHQ1B-28" value="" style="edgeStyle=orthogonalEdgeStyle;rounded=0;orthogonalLoop=1;jettySize=auto;html=1;" parent="1" source="FufnaFPNU5PWBQHgHQ1B-6" target="FufnaFPNU5PWBQHgHQ1B-21" edge="1">
          <mxGeometry relative="1" as="geometry" />
        </mxCell>
        <mxCell id="FufnaFPNU5PWBQHgHQ1B-6" value="Se letra == D" style="strokeWidth=2;html=1;shape=mxgraph.flowchart.decision;whiteSpace=wrap;" parent="1" vertex="1">
          <mxGeometry x="130" y="690" width="100" height="100" as="geometry" />
        </mxCell>
        <mxCell id="FufnaFPNU5PWBQHgHQ1B-7" value="" style="ellipse;whiteSpace=wrap;html=1;aspect=fixed;" parent="1" vertex="1">
          <mxGeometry x="470" y="895" width="30" height="30" as="geometry" />
        </mxCell>
        <mxCell id="FufnaFPNU5PWBQHgHQ1B-14" value="" style="edgeStyle=orthogonalEdgeStyle;rounded=0;orthogonalLoop=1;jettySize=auto;html=1;" parent="1" source="FufnaFPNU5PWBQHgHQ1B-12" target="FufnaFPNU5PWBQHgHQ1B-13" edge="1">
          <mxGeometry relative="1" as="geometry" />
        </mxCell>
        <mxCell id="FufnaFPNU5PWBQHgHQ1B-19" value="" style="edgeStyle=orthogonalEdgeStyle;rounded=0;orthogonalLoop=1;jettySize=auto;html=1;" parent="1" source="FufnaFPNU5PWBQHgHQ1B-12" target="FufnaFPNU5PWBQHgHQ1B-17" edge="1">
          <mxGeometry relative="1" as="geometry" />
        </mxCell>
        <mxCell id="FufnaFPNU5PWBQHgHQ1B-12" value="Se letra == S" style="strokeWidth=2;html=1;shape=mxgraph.flowchart.decision;whiteSpace=wrap;" parent="1" vertex="1">
          <mxGeometry x="135" y="390" width="90" height="90" as="geometry" />
        </mxCell>
        <mxCell id="bghfGazolIY_15rfyOPS-3" style="edgeStyle=orthogonalEdgeStyle;rounded=0;orthogonalLoop=1;jettySize=auto;html=1;entryX=0.5;entryY=0;entryDx=0;entryDy=0;" edge="1" parent="1" source="FufnaFPNU5PWBQHgHQ1B-13" target="FufnaFPNU5PWBQHgHQ1B-7">
          <mxGeometry relative="1" as="geometry" />
        </mxCell>
        <mxCell id="FufnaFPNU5PWBQHgHQ1B-13" value="Imprima Solteiro" style="shape=display;whiteSpace=wrap;html=1;" parent="1" vertex="1">
          <mxGeometry x="290" y="410" width="96" height="50" as="geometry" />
        </mxCell>
        <mxCell id="FufnaFPNU5PWBQHgHQ1B-20" value="" style="edgeStyle=orthogonalEdgeStyle;rounded=0;orthogonalLoop=1;jettySize=auto;html=1;" parent="1" source="FufnaFPNU5PWBQHgHQ1B-17" target="FufnaFPNU5PWBQHgHQ1B-18" edge="1">
          <mxGeometry relative="1" as="geometry" />
        </mxCell>
        <mxCell id="FufnaFPNU5PWBQHgHQ1B-27" value="" style="edgeStyle=orthogonalEdgeStyle;rounded=0;orthogonalLoop=1;jettySize=auto;html=1;" parent="1" source="FufnaFPNU5PWBQHgHQ1B-17" target="FufnaFPNU5PWBQHgHQ1B-6" edge="1">
          <mxGeometry relative="1" as="geometry" />
        </mxCell>
        <mxCell id="FufnaFPNU5PWBQHgHQ1B-17" value="Se letra == C" style="strokeWidth=2;html=1;shape=mxgraph.flowchart.decision;whiteSpace=wrap;" parent="1" vertex="1">
          <mxGeometry x="130" y="535" width="100" height="100" as="geometry" />
        </mxCell>
        <mxCell id="FufnaFPNU5PWBQHgHQ1B-18" value="Imprima Casado" style="shape=display;whiteSpace=wrap;html=1;" parent="1" vertex="1">
          <mxGeometry x="290" y="560" width="96" height="50" as="geometry" />
        </mxCell>
        <mxCell id="FufnaFPNU5PWBQHgHQ1B-26" value="" style="edgeStyle=orthogonalEdgeStyle;rounded=0;orthogonalLoop=1;jettySize=auto;html=1;" parent="1" source="FufnaFPNU5PWBQHgHQ1B-21" target="FufnaFPNU5PWBQHgHQ1B-24" edge="1">
          <mxGeometry relative="1" as="geometry" />
        </mxCell>
        <mxCell id="bghfGazolIY_15rfyOPS-1" value="" style="edgeStyle=orthogonalEdgeStyle;rounded=0;orthogonalLoop=1;jettySize=auto;html=1;" edge="1" parent="1" source="FufnaFPNU5PWBQHgHQ1B-21" target="FufnaFPNU5PWBQHgHQ1B-2">
          <mxGeometry relative="1" as="geometry" />
        </mxCell>
        <mxCell id="FufnaFPNU5PWBQHgHQ1B-21" value="Se letra == V" style="strokeWidth=2;html=1;shape=mxgraph.flowchart.decision;whiteSpace=wrap;" parent="1" vertex="1">
          <mxGeometry x="130" y="860" width="100" height="100" as="geometry" />
        </mxCell>
        <mxCell id="FufnaFPNU5PWBQHgHQ1B-22" value="" style="strokeWidth=2;html=1;shape=mxgraph.flowchart.decision;whiteSpace=wrap;" parent="1" vertex="1">
          <mxGeometry x="727" y="570" width="100" height="100" as="geometry" />
        </mxCell>
        <mxCell id="FufnaFPNU5PWBQHgHQ1B-23" value="Imprima Divorciado" style="shape=display;whiteSpace=wrap;html=1;" parent="1" vertex="1">
          <mxGeometry x="290" y="715" width="96" height="50" as="geometry" />
        </mxCell>
        <mxCell id="bghfGazolIY_15rfyOPS-2" value="" style="edgeStyle=orthogonalEdgeStyle;rounded=0;orthogonalLoop=1;jettySize=auto;html=1;" edge="1" parent="1" source="FufnaFPNU5PWBQHgHQ1B-24" target="FufnaFPNU5PWBQHgHQ1B-7">
          <mxGeometry relative="1" as="geometry" />
        </mxCell>
        <mxCell id="FufnaFPNU5PWBQHgHQ1B-24" value="Imprima Viúvo" style="shape=display;whiteSpace=wrap;html=1;" parent="1" vertex="1">
          <mxGeometry x="290" y="885" width="96" height="50" as="geometry" />
        </mxCell>
        <mxCell id="FufnaFPNU5PWBQHgHQ1B-29" value="False" style="text;html=1;align=center;verticalAlign=middle;whiteSpace=wrap;rounded=0;" parent="1" vertex="1">
          <mxGeometry x="220" y="715" width="60" height="30" as="geometry" />
        </mxCell>
        <mxCell id="FufnaFPNU5PWBQHgHQ1B-30" value="True" style="text;html=1;align=center;verticalAlign=middle;whiteSpace=wrap;rounded=0;" parent="1" vertex="1">
          <mxGeometry x="225" y="555" width="60" height="30" as="geometry" />
        </mxCell>
        <mxCell id="FufnaFPNU5PWBQHgHQ1B-32" value="True" style="text;html=1;align=center;verticalAlign=middle;whiteSpace=wrap;rounded=0;" parent="1" vertex="1">
          <mxGeometry x="225" y="885" width="60" height="30" as="geometry" />
        </mxCell>
        <mxCell id="FufnaFPNU5PWBQHgHQ1B-33" value="False" style="text;html=1;align=center;verticalAlign=middle;whiteSpace=wrap;rounded=0;" parent="1" vertex="1">
          <mxGeometry x="220" y="410" width="60" height="30" as="geometry" />
        </mxCell>
      </root>
    </mxGraphModel>
  </diagram>
</mxfile>
